<?xml version="1.0" encoding="UTF-8"?>
<svg width="2017px" height="676px" viewBox="0 0 2017 676" version="1.1" xmlns="http://www.w3.org/2000/svg" xmlns:xlink="http://www.w3.org/1999/xlink">
    <g stroke="none" stroke-width="1" fill="none" fill-rule="evenodd">
        <g transform="translate(0.000000, -0.000000)" fill="#FF3600" fill-rule="nonzero">
            <path d="M731.9,298 L731.9,271.4 C732.166667,271.466667 732.616667,271.533333 733.25,271.6 C733.883333,271.666667 734.533333,271.716667 735.2,271.75 C735.866667,271.783333 736.5,271.8 737.1,271.8 L737.1,271.8 L738.4,271.8 C741.2,271.8 743.916667,271.383333 746.55,270.55 C749.183333,269.716667 751.516667,268.383333 753.55,266.55 C755.583333,264.716667 757.216667,262.333333 758.45,259.4 C759.683333,256.466667 760.3,252.9 760.3,248.7 C760.3,244.366667 759.65,240.8 758.35,238 C757.05,235.2 755.35,233 753.25,231.4 C751.15,229.8 748.8,228.7 746.2,228.1 C743.6,227.5 740.966667,227.2 738.3,227.2 C735.966667,227.2 733.6,227.3 731.2,227.5 C728.8,227.7 726.533333,228.1 724.4,228.7 L724.4,228.7 L724.4,298 L731.9,298 Z M737.9,264.9 L736.65,264.9 C736.083333,264.9 735.5,264.883333 734.9,264.85 C734.3,264.816667 733.716667,264.783333 733.15,264.75 C732.583333,264.716667 732.166667,264.633333 731.9,264.5 L731.9,264.5 L731.9,234.7 C732.633333,234.5 733.616667,234.35 734.85,234.25 C736.083333,234.15 737.366667,234.1 738.7,234.1 C740.5,234.1 742.233333,234.333333 743.9,234.8 C745.566667,235.266667 747.016667,236.066667 748.25,237.2 C749.483333,238.333333 750.483333,239.833333 751.25,241.7 C752.016667,243.566667 752.4,245.9 752.4,248.7 C752.4,251.9 751.983333,254.55 751.15,256.65 C750.316667,258.75 749.233333,260.416667 747.9,261.65 C746.566667,262.883333 745.033333,263.733333 743.3,264.2 C741.566667,264.666667 739.766667,264.9 737.9,264.9 L737.9,264.9 Z M779.726267,299.2 C785.392934,299.2 789.792934,297.1 792.926267,292.9 C796.059601,288.7 797.626267,282.066667 797.626267,273 C797.626267,264.2 796.176267,257.633333 793.276267,253.3 C790.376267,248.966667 785.859601,246.8 779.726267,246.8 C773.992934,246.8 769.576267,248.916667 766.476267,253.15 C763.376267,257.383333 761.826267,264 761.826267,273 C761.826267,281.8 763.276267,288.366667 766.176267,292.7 C769.076267,297.033333 773.592934,299.2 779.726267,299.2 Z M779.726267,292.7 C777.859601,292.7 776.259601,292.216667 774.926267,291.25 C773.592934,290.283333 772.509601,288.933333 771.676267,287.2 C770.842934,285.466667 770.242934,283.4 769.876267,281 C769.509601,278.6 769.326267,275.933333 769.326267,273 C769.326267,266.133333 770.209601,261.133333 771.976267,258 C773.742934,254.866667 776.326267,253.3 779.726267,253.3 C781.592934,253.3 783.192934,253.783333 784.526267,254.75 C785.859601,255.716667 786.942934,257.066667 787.776267,258.8 C788.609601,260.533333 789.209601,262.616667 789.576267,265.05 C789.942934,267.483333 790.126267,270.133333 790.126267,273 C790.126267,279.933333 789.259601,284.95 787.526267,288.05 C785.792934,291.15 783.192934,292.7 779.726267,292.7 Z M818.952535,299.2 C821.752535,299.2 824.152535,298.533333 826.152535,297.2 C828.152535,295.866667 829.619201,294.2 830.552535,292.2 L830.552535,292.2 L830.952535,292.2 L832.552535,298.2 L837.452535,298.2 C837.052535,295.533333 836.819201,292.816667 836.752535,290.05 C836.685868,287.283333 836.652535,284.2 836.652535,280.8 L836.652535,280.8 L836.652535,228 L829.452535,228 L829.452535,248.6 C828.119201,248.066667 826.885868,247.683333 825.752535,247.45 C824.619201,247.216667 823.085868,247.1 821.152535,247.1 C815.485868,247.1 811.035868,249.3 807.802535,253.7 C804.569201,258.1 802.952535,264.566667 802.952535,273.1 C802.952535,282.1 804.269201,288.7 806.902535,292.9 C809.535868,297.1 813.552535,299.2 818.952535,299.2 Z M820.252535,292.7 C818.452535,292.7 816.935868,292.233333 815.702535,291.3 C814.469201,290.366667 813.469201,289.033333 812.702535,287.3 C811.935868,285.566667 811.369201,283.516667 811.002535,281.15 C810.635868,278.783333 810.452535,276.133333 810.452535,273.2 C810.452535,266.533333 811.435868,261.6 813.402535,258.4 C815.369201,255.2 818.119201,253.6 821.652535,253.6 C823.585868,253.6 825.135868,253.783333 826.302535,254.15 C827.469201,254.516667 828.519201,255.1 829.452535,255.9 L829.452535,255.9 L829.452535,284.2 C828.119201,289.866667 825.052535,292.7 820.252535,292.7 Z M861.578802,299.2 C863.912135,299.2 866.145469,298.9 868.278802,298.3 C870.412135,297.7 872.312135,296.766667 873.978802,295.5 L873.978802,295.5 L871.878802,289.7 C870.945469,290.5 869.728802,291.2 868.228802,291.8 C866.728802,292.4 865.112135,292.7 863.378802,292.7 C861.178802,292.7 859.345469,292.183333 857.878802,291.15 C856.412135,290.116667 855.212135,288.716667 854.278802,286.95 C853.345469,285.183333 852.678802,283.1 852.278802,280.7 C851.878802,278.3 851.678802,275.733333 851.678802,273 C851.678802,266.2 852.595469,261.216667 854.428802,258.05 C856.262135,254.883333 858.978802,253.3 862.578802,253.3 C865.712135,253.3 868.612135,254.066667 871.278802,255.6 L871.278802,255.6 L873.278802,249.3 C871.945469,248.566667 870.345469,247.966667 868.478802,247.5 C866.612135,247.033333 864.378802,246.8 861.778802,246.8 C856.112135,246.8 851.762135,249.033333 848.728802,253.5 C845.695469,257.966667 844.178802,264.466667 844.178802,273 C844.178802,276.933333 844.495469,280.516667 845.128802,283.75 C845.762135,286.983333 846.762135,289.75 848.128802,292.05 C849.495469,294.35 851.278802,296.116667 853.478802,297.35 C855.678802,298.583333 858.378802,299.2 861.578802,299.2 Z M889.205069,298.7 C892.471736,298.7 895.071736,298.066667 897.005069,296.8 C898.938402,295.533333 900.405069,294.033333 901.405069,292.3 L901.405069,292.3 L901.805069,292.3 L903.505069,298.2 L909.005069,298.2 C908.538402,296.266667 908.221736,294.216667 908.055069,292.05 C907.888402,289.883333 907.805069,287.533333 907.805069,285 C907.805069,281.6 907.888402,278 908.055069,274.2 C908.221736,270.4 908.305069,266.5 908.305069,262.5 C908.305069,260.5 908.155069,258.583333 907.855069,256.75 C907.555069,254.916667 906.921736,253.283333 905.955069,251.85 C904.988402,250.416667 903.655069,249.283333 901.955069,248.45 C900.255069,247.616667 898.005069,247.2 895.205069,247.2 C892.138402,247.2 889.221736,247.533333 886.455069,248.2 C883.688402,248.866667 881.338402,249.8 879.405069,251 L879.405069,251 L881.805069,256.7 C883.271736,255.833333 885.105069,255.116667 887.305069,254.55 C889.505069,253.983333 891.538402,253.7 893.405069,253.7 C896.405069,253.7 898.471736,254.466667 899.605069,256 C900.738402,257.533333 901.305069,260.2 901.305069,264 C901.305069,265.6 901.205069,267.433333 901.005069,269.5 C900.271736,269.433333 899.571736,269.4 898.905069,269.4 L898.905069,269.4 L896.905069,269.4 C893.905069,269.4 891.188402,269.65 888.755069,270.15 C886.321736,270.65 884.221736,271.5 882.455069,272.7 C880.688402,273.9 879.321736,275.466667 878.355069,277.4 C877.388402,279.333333 876.905069,281.733333 876.905069,284.6 C876.905069,289 878.055069,292.45 880.355069,294.95 C882.655069,297.45 885.605069,298.7 889.205069,298.7 Z M891.405069,292.2 C889.338402,292.2 887.655069,291.466667 886.355069,290 C885.055069,288.533333 884.405069,286.466667 884.405069,283.8 C884.405069,282.066667 884.755069,280.633333 885.455069,279.5 C886.155069,278.366667 887.105069,277.466667 888.305069,276.8 C889.505069,276.133333 890.871736,275.666667 892.405069,275.4 C893.938402,275.133333 895.505069,275 897.105069,275 C897.771736,275 898.438402,275.016667 899.105069,275.05 C899.771736,275.083333 900.438402,275.133333 901.105069,275.2 L901.105069,275.2 L901.105069,285.8 C900.505069,287.4 899.438402,288.866667 897.905069,290.2 C896.371736,291.533333 894.205069,292.2 891.405069,292.2 Z M927.831336,299.2 C930.298003,299.2 932.448003,298.833333 934.281336,298.1 C936.11467,297.366667 937.648003,296.383333 938.881336,295.15 C940.11467,293.916667 941.031336,292.466667 941.631336,290.8 C942.231336,289.133333 942.531336,287.366667 942.531336,285.5 C942.531336,282.633333 942.06467,280.25 941.131336,278.35 C940.198003,276.45 939.01467,274.816667 937.581336,273.45 C936.148003,272.083333 934.598003,270.9 932.931336,269.9 C931.26467,268.9 929.71467,267.916667 928.281336,266.95 C926.848003,265.983333 925.66467,264.916667 924.731336,263.75 C923.798003,262.583333 923.331336,261.166667 923.331336,259.5 C923.331336,257.366667 923.881336,255.8 924.981336,254.8 C926.081336,253.8 927.831336,253.3 930.231336,253.3 C931.96467,253.3 933.66467,253.516667 935.331336,253.95 C936.998003,254.383333 938.46467,254.933333 939.731336,255.6 L939.731336,255.6 L941.631336,249.6 C940.16467,248.733333 938.431336,248.05 936.431336,247.55 C934.431336,247.05 932.06467,246.8 929.331336,246.8 C925.131336,246.8 921.881336,247.883333 919.581336,250.05 C917.281336,252.216667 916.131336,255.433333 916.131336,259.7 C916.131336,262.366667 916.598003,264.566667 917.531336,266.3 C918.46467,268.033333 919.648003,269.533333 921.081336,270.8 C922.51467,272.066667 924.06467,273.15 925.731336,274.05 C927.398003,274.95 928.948003,275.933333 930.381336,277 C931.81467,278.066667 932.998003,279.266667 933.931336,280.6 C934.86467,281.933333 935.331336,283.633333 935.331336,285.7 C935.331336,288.166667 934.56467,289.95 933.031336,291.05 C931.498003,292.15 929.631336,292.7 927.431336,292.7 C925.498003,292.7 923.61467,292.416667 921.781336,291.85 C919.948003,291.283333 918.36467,290.6 917.031336,289.8 L917.031336,289.8 L914.831336,296.1 C916.298003,297.033333 918.098003,297.783333 920.231336,298.35 C922.36467,298.916667 924.898003,299.2 927.831336,299.2 Z M959.957604,299.1 C961.890937,299.1 963.740937,298.883333 965.507604,298.45 C967.27427,298.016667 968.890937,297.433333 970.357604,296.7 L970.357604,296.7 L968.957604,291 C967.82427,291.466667 966.77427,291.85 965.807604,292.15 C964.840937,292.45 963.690937,292.6 962.357604,292.6 C960.757604,292.6 959.607604,291.95 958.907604,290.65 C958.207604,289.35 957.857604,287.233333 957.857604,284.3 L957.857604,284.3 L957.857604,254.5 L968.657604,254.5 L968.657604,248 L957.857604,248 L957.857604,235.8 L950.657604,238.1 L950.657604,248 L944.557604,248 L944.557604,254.5 L950.657604,254.5 L950.657604,285.3 C950.657604,290.166667 951.37427,293.683333 952.807604,295.85 C954.240937,298.016667 956.62427,299.1 959.957604,299.1 Z M752.2,473.1 L752.2,424.9 C752.733333,425.033333 753.633333,425.166667 754.9,425.3 C756.166667,425.433333 757.466667,425.533333 758.8,425.6 C760.133333,425.666667 761.4,425.7 762.6,425.7 L762.6,425.7 L765.2,425.7 C770.933333,425.7 776.5,424.833333 781.9,423.1 C787.3,421.366667 792.066667,418.566667 796.2,414.7 C800.333333,410.833333 803.633333,405.833333 806.1,399.7 C808.566667,393.566667 809.8,386.1 809.8,377.3 C809.8,367.566667 808.333333,359.666667 805.4,353.6 C802.466667,347.533333 798.666667,342.833333 794,339.5 C789.333333,336.166667 784.033333,333.933333 778.1,332.8 C772.166667,331.666667 766.133333,331.1 760,331.1 C754.266667,331.1 748.533333,331.4 742.8,332 C737.066667,332.6 731.8,333.433333 727,334.5 L727,334.5 L727,473.1 L752.2,473.1 Z M761.2,403.3 C760.4,403.3 758.9,403.2 756.7,403 C754.5,402.8 753,402.566667 752.2,402.3 L752.2,402.3 L752.2,354.5 C754.866667,353.833333 758.266667,353.5 762.4,353.5 C765.2,353.5 767.866667,353.9 770.4,354.7 C772.933333,355.5 775.166667,356.8 777.1,358.6 C779.033333,360.4 780.566667,362.833333 781.7,365.9 C782.833333,368.966667 783.4,372.7 783.4,377.1 C783.4,382.3 782.8,386.6 781.6,390 C780.4,393.4 778.766667,396.066667 776.7,398 C774.633333,399.933333 772.266667,401.3 769.6,402.1 C766.933333,402.9 764.133333,403.3 761.2,403.3 Z M843.452535,473.1 L843.452535,415.3 L854.252535,417.9 L878.652535,473.1 L907.652535,473.1 L881.852535,419.5 L873.852535,413.1 C881.185868,410.433333 886.952535,405.533333 891.152535,398.4 C895.352535,391.266667 897.452535,382.033333 897.452535,370.7 C897.452535,362.833333 896.152535,356.333333 893.552535,351.2 C890.952535,346.066667 887.552535,342 883.352535,339 C879.152535,336 874.319201,333.933333 868.852535,332.8 C863.385868,331.666667 857.785868,331.1 852.052535,331.1 C847.519201,331.1 842.119201,331.366667 835.852535,331.9 C829.585868,332.433333 823.719201,333.3 818.252535,334.5 L818.252535,334.5 L818.252535,473.1 L843.452535,473.1 Z M852.052535,398.1 L843.452535,398.1 L843.452535,355.3 C844.652535,354.9 846.252535,354.633333 848.252535,354.5 C850.252535,354.366667 852.319201,354.3 854.452535,354.3 C860.185868,354.3 864.385868,356.2 867.052535,360 C869.719201,363.8 871.052535,368.7 871.052535,374.7 C871.052535,382.7 869.452535,388.6 866.252535,392.4 C863.052535,396.2 858.319201,398.1 852.052535,398.1 L852.052535,398.1 Z M955.705069,475.9 C972.105069,475.9 984.471736,469.7 992.805069,457.3 C1001.1384,444.9 1005.30507,426.833333 1005.30507,403.1 C1005.30507,392.033333 1004.3384,382 1002.40507,373 C1000.47174,364 997.505069,356.333333 993.505069,350 C989.505069,343.666667 984.371736,338.8 978.105069,335.4 C971.838402,332 964.371736,330.3 955.705069,330.3 C939.038402,330.3 926.638402,336.5 918.505069,348.9 C910.371736,361.3 906.305069,379.366667 906.305069,403.1 C906.305069,414.166667 907.238402,424.2 909.105069,433.2 C910.971736,442.2 913.905069,449.866667 917.905069,456.2 C921.905069,462.533333 927.005069,467.4 933.205069,470.8 C939.405069,474.2 946.905069,475.9 955.705069,475.9 Z M955.705069,452.7 C951.438402,452.7 947.871736,451.433333 945.005069,448.9 C942.138402,446.366667 939.771736,442.9 937.905069,438.5 C936.038402,434.1 934.705069,428.866667 933.905069,422.8 C933.105069,416.733333 932.705069,410.166667 932.705069,403.1 C932.705069,370.033333 940.371736,353.5 955.705069,353.5 C960.105069,353.5 963.771736,354.8 966.705069,357.4 C969.638402,360 972.005069,363.533333 973.805069,368 C975.605069,372.466667 976.905069,377.733333 977.705069,383.8 C978.505069,389.866667 978.905069,396.3 978.905069,403.1 C978.905069,420.433333 976.971736,433.033333 973.105069,440.9 C969.238402,448.766667 963.438402,452.7 955.705069,452.7 Z M1039.7576,473.1 L1039.7576,400.7 L1035.9576,373.7 L1037.1576,373.7 L1044.5576,397.9 L1068.7576,447.3 L1077.1576,447.3 L1099.9576,398.1 L1107.3576,374.1 L1108.3576,374.1 L1105.5576,400.9 L1105.5576,473.1 L1130.7576,473.1 L1130.7576,333.1 L1106.9576,333.1 L1079.5576,393.3 L1074.9576,411.1 L1074.1576,411.1 L1069.3576,393.7 L1040.1576,333.1 L1015.9576,333.1 L1015.9576,473.1 L1039.7576,473.1 Z M1190.81014,475.9 C1207.21014,475.9 1219.5768,469.7 1227.91014,457.3 C1236.24347,444.9 1240.41014,426.833333 1240.41014,403.1 C1240.41014,392.033333 1239.44347,382 1237.51014,373 C1235.5768,364 1232.61014,356.333333 1228.61014,350 C1224.61014,343.666667 1219.4768,338.8 1213.21014,335.4 C1206.94347,332 1199.4768,330.3 1190.81014,330.3 C1174.14347,330.3 1161.74347,336.5 1153.61014,348.9 C1145.4768,361.3 1141.41014,379.366667 1141.41014,403.1 C1141.41014,414.166667 1142.34347,424.2 1144.21014,433.2 C1146.0768,442.2 1149.01014,449.866667 1153.01014,456.2 C1157.01014,462.533333 1162.11014,467.4 1168.31014,470.8 C1174.51014,474.2 1182.01014,475.9 1190.81014,475.9 Z M1190.81014,452.7 C1186.54347,452.7 1182.9768,451.433333 1180.11014,448.9 C1177.24347,446.366667 1174.8768,442.9 1173.01014,438.5 C1171.14347,434.1 1169.81014,428.866667 1169.01014,422.8 C1168.21014,416.733333 1167.81014,410.166667 1167.81014,403.1 C1167.81014,370.033333 1175.4768,353.5 1190.81014,353.5 C1195.21014,353.5 1198.8768,354.8 1201.81014,357.4 C1204.74347,360 1207.11014,363.533333 1208.91014,368 C1210.71014,372.466667 1212.01014,377.733333 1212.81014,383.8 C1213.61014,389.866667 1214.01014,396.3 1214.01014,403.1 C1214.01014,420.433333 1212.0768,433.033333 1208.21014,440.9 C1204.34347,448.766667 1198.54347,452.7 1190.81014,452.7 Z M1356.31521,473.1 L1356.31521,449.9 L1310.71521,449.9 L1310.71521,413.9 L1351.31521,413.9 L1351.31521,390.7 L1310.71521,390.7 L1310.71521,356.3 L1355.51521,356.3 L1355.51521,333.1 L1285.51521,333.1 L1285.51521,473.1 L1356.31521,473.1 Z M1387.36774,473.1 L1406.16774,430.1 L1410.16774,414.5 L1414.36774,430.1 L1433.16774,473.1 L1462.56774,473.1 L1428.96774,400.5 L1460.96774,333.1 L1433.76774,333.1 L1416.76774,373.1 L1413.16774,388.3 L1409.36774,373.1 L1393.16774,333.1 L1362.76774,333.1 L1393.76774,401.9 L1359.56774,473.1 L1387.36774,473.1 Z M1507.82028,475.9 C1513.55361,475.9 1519.32028,475.233333 1525.12028,473.9 C1530.92028,472.566667 1535.55361,470.433333 1539.02028,467.5 L1539.02028,467.5 L1534.02028,446.3 C1531.35361,448.033333 1528.35361,449.533333 1525.02028,450.8 C1521.68694,452.066667 1517.68694,452.7 1513.02028,452.7 C1507.68694,452.7 1503.12028,451.5 1499.32028,449.1 C1495.52028,446.7 1492.38694,443.3 1489.92028,438.9 C1487.45361,434.5 1485.65361,429.266667 1484.52028,423.2 C1483.38694,417.133333 1482.82028,410.433333 1482.82028,403.1 C1482.82028,386.033333 1485.28694,373.5 1490.22028,365.5 C1495.15361,357.5 1502.22028,353.5 1511.42028,353.5 C1516.08694,353.5 1520.12028,353.866667 1523.52028,354.6 C1526.92028,355.333333 1529.88694,356.366667 1532.42028,357.7 L1532.42028,357.7 L1537.42028,335.5 C1534.35361,334.166667 1530.38694,332.966667 1525.52028,331.9 C1520.65361,330.833333 1514.95361,330.3 1508.42028,330.3 C1502.02028,330.3 1495.68694,331.433333 1489.42028,333.7 C1483.15361,335.966667 1477.58694,339.866667 1472.72028,345.4 C1467.85361,350.933333 1463.92028,358.366667 1460.92028,367.7 C1457.92028,377.033333 1456.42028,388.766667 1456.42028,402.9 C1456.42028,416.5 1457.75361,427.966667 1460.42028,437.3 C1463.08694,446.633333 1466.75361,454.166667 1471.42028,459.9 C1476.08694,465.633333 1481.52028,469.733333 1487.72028,472.2 C1493.92028,474.666667 1500.62028,475.9 1507.82028,475.9 Z M1572.07281,473.1 L1572.07281,413.9 L1610.27281,413.9 L1610.27281,473.1 L1635.47281,473.1 L1635.47281,333.1 L1610.27281,333.1 L1610.27281,390.7 L1572.07281,390.7 L1572.07281,333.1 L1546.87281,333.1 L1546.87281,473.1 L1572.07281,473.1 Z M1664.72535,473.1 L1672.92535,441.5 L1705.92535,441.5 L1714.52535,473.1 L1740.92535,473.1 L1700.12535,332.1 L1680.32535,332.1 L1639.72535,473.1 L1664.72535,473.1 Z M1701.52535,420.7 L1678.32535,420.7 L1686.12535,388.3 L1689.52535,366.1 L1690.32535,366.1 L1693.52535,388.1 L1701.52535,420.7 Z M1835.37788,474.1 L1835.37788,333.1 L1811.57788,333.1 L1811.57788,402.9 L1814.77788,426.7 L1813.57788,426.7 L1804.97788,402.5 L1764.77788,332.1 L1745.37788,332.1 L1745.37788,473.1 L1769.17788,473.1 L1769.17788,403.9 L1765.97788,379.7 L1766.97788,379.7 L1776.17788,404.3 L1815.97788,474.1 L1835.37788,474.1 Z M1897.83041,475.9 C1904.36375,475.9 1910.93041,474.866667 1917.53041,472.8 C1924.13041,470.733333 1929.89708,467.366667 1934.83041,462.7 L1934.83041,462.7 L1934.83041,400.7 L1891.63041,400.7 L1891.63041,415.9 L1914.63041,419.1 L1914.63041,447.7 C1912.76375,449.433333 1910.59708,450.7 1908.13041,451.5 C1905.66375,452.3 1903.09708,452.7 1900.43041,452.7 C1892.03041,452.7 1885.26375,448.7 1880.13041,440.7 C1874.99708,432.7 1872.43041,420.233333 1872.43041,403.3 C1872.43041,394.5 1873.13041,386.933333 1874.53041,380.6 C1875.93041,374.266667 1877.93041,369.1 1880.53041,365.1 C1883.13041,361.1 1886.33041,358.166667 1890.13041,356.3 C1893.93041,354.433333 1898.16375,353.5 1902.83041,353.5 C1907.89708,353.5 1912.19708,353.9 1915.73041,354.7 C1919.26375,355.5 1922.36375,356.5 1925.03041,357.7 L1925.03041,357.7 L1930.23041,335.9 C1926.76375,334.433333 1922.39708,333.133333 1917.13041,332 C1911.86375,330.866667 1906.03041,330.3 1899.63041,330.3 C1892.43041,330.3 1885.59708,331.6 1879.13041,334.2 C1872.66375,336.8 1866.99708,341 1862.13041,346.8 C1857.26375,352.6 1853.36375,360.1 1850.43041,369.3 C1847.49708,378.5 1846.03041,389.766667 1846.03041,403.1 C1846.03041,415.9 1847.26375,426.866667 1849.73041,436 C1852.19708,445.133333 1855.66375,452.666667 1860.13041,458.6 C1864.59708,464.533333 1870.03041,468.9 1876.43041,471.7 C1882.83041,474.5 1889.96375,475.9 1897.83041,475.9 Z M2016.28295,473.1 L2016.28295,449.9 L1970.68295,449.9 L1970.68295,413.9 L2011.28295,413.9 L2011.28295,390.7 L1970.68295,390.7 L1970.68295,356.3 L2015.48295,356.3 L2015.48295,333.1 L1945.48295,333.1 L1945.48295,473.1 L2016.28295,473.1 Z" id="PodcastPROMOEXCHANGE"></path>
            <g id="LOGO">
                <path d="M288.398822,123.62688 C254.232155,123.62688 226.898822,96.15424 226.898822,61.81344 C226.898822,27.47264 254.232155,-7.10542736e-15 288.398822,-7.10542736e-15 C322.565489,-7.10542736e-15 349.898822,27.47264 349.898822,61.81344 C349.898822,96.15424 322.565489,123.62688 288.398822,123.62688 Z M288.398822,20.60448 C265.848822,20.60448 247.398822,39.148512 247.398822,61.81344 C247.398822,84.478368 265.848822,103.0224 288.398822,103.0224 C310.948822,103.0224 329.398822,84.478368 329.398822,61.81344 C329.398822,39.148512 310.948822,20.60448 288.398822,20.60448 Z" id="Shape"></path>
                <path d="M288.398822,675.826944 C254.232155,675.826944 226.898822,648.354304 226.898822,614.013504 C226.898822,579.672704 254.232155,552.200064 288.398822,552.200064 C322.565489,552.200064 349.898822,579.672704 349.898822,614.013504 C349.898822,648.354304 322.565489,675.826944 288.398822,675.826944 Z M288.398822,572.804544 C265.848822,572.804544 247.398822,591.348576 247.398822,614.013504 C247.398822,636.678432 265.848822,655.222464 288.398822,655.222464 C310.948822,655.222464 329.398822,636.678432 329.398822,614.013504 C329.398822,591.348576 310.948822,572.804544 288.398822,572.804544 Z" id="Shape"></path>
                <path d="M39.0943278,435.900258 C-0.101177855,335.667365 24.6538783,223.076993 100.294328,148.245586 C100.294328,148.245586 100.294328,148.245586 100.981968,148.245586 L116.797699,172.960546 C122.298822,181.198866 134.67635,181.198866 139.489833,172.274019 L177.310058,99.5021931 C182.123541,90.5773465 175.247137,80.2794465 164.93253,80.2794465 L82.4156761,83.7120798 C72.1010693,84.3986065 66.5999457,95.3830331 72.1010693,103.621353 L88.6044401,129.709366 C88.6044401,129.709366 88.6044401,129.709366 88.6044401,130.395893 C4.71230529,210.719513 -22.7933127,334.294312 19.8403952,443.452052 C48.0336536,515.537351 103.73253,571.832538 171.808935,602.039711 C177.310058,604.099291 183.498822,602.039711 185.561743,596.547497 L185.561743,596.547497 C187.624665,591.055284 184.874103,585.563071 180.06062,583.503491 C116.797699,554.669371 65.2246648,502.493345 39.0943278,435.900258 Z" id="Path"></path>
                <path d="M488.811182,546.431051 C572.703317,466.107431 600.896575,342.532632 557.575227,233.374892 C529.381968,161.289593 473.683092,104.994406 405.606687,74.7872332 C400.105564,72.7276532 393.9168,74.7872332 391.853878,80.2794465 L391.853878,80.2794465 C389.790957,85.7716598 392.541519,91.2638731 397.355002,93.3234531 C460.617923,122.157573 512.190957,173.647073 538.321294,240.926686 C577.5168,341.159579 552.761743,454.436478 477.121294,528.581358 L461.305564,503.179871 C455.80444,494.941551 443.426912,495.628078 439.301069,503.866398 L400.793204,577.324751 C395.979721,586.249598 402.856126,596.547497 412.483092,595.860971 L495.687586,592.428338 C505.314552,591.741811 511.503317,581.443911 506.002193,572.519064 L488.811182,546.431051 Z" id="Path"></path>
                <path d="M378.451521,262.489193 C355.559549,238.754776 316.796127,239.315711 293.456037,262.614634 L290.236223,265.828768 C289.773879,266.290297 289.022273,266.290297 288.559929,265.828768 L285.340116,262.614634 C262.000025,239.315711 223.236603,238.754776 200.344631,262.491559 C178.154474,285.499364 178.420026,322.111619 201.141286,344.792803 L287.720596,431.219404 C288.647656,432.144828 290.148497,432.144828 291.073185,431.219404 L377.652495,344.792803 C400.378497,322.109252 400.644049,285.499364 378.451521,262.489193 Z" id="Path"></path>
            </g>
        </g>
    </g>
</svg>
