<?xml version="1.0" standalone="no"?>
<!DOCTYPE svg PUBLIC "-//W3C//DTD SVG 20010904//EN"
 "http://www.w3.org/TR/2001/REC-SVG-20010904/DTD/svg10.dtd">
<svg version="1.0" xmlns="http://www.w3.org/2000/svg"
 width="1024.000000pt" height="1024.000000pt" viewBox="0 0 1024.000000 1024.000000"
 preserveAspectRatio="xMidYMid meet">
<metadata>
Created by potrace 1.11, written by Peter Selinger 2001-2013
</metadata>
<g transform="translate(0.000000,1024.000000) scale(0.100000,-0.100000)"
fill="#000000" stroke="none">
<path d="M0 5120 l0 -5120 5120 0 5120 0 0 5120 0 5120 -5120 0 -5120 0 0
-5120z m5295 3345 c245 -74 411 -289 423 -548 6 -125 -9 -201 -60 -307 -54
-111 -159 -220 -265 -273 -407 -202 -883 84 -886 533 -1 117 14 181 65 289 31
65 56 100 112 155 165 164 385 219 611 151z m1126 -785 c783 -394 1351 -1141
1524 -2005 13 -66 30 -160 37 -210 17 -120 17 -580 0 -700 -92 -638 -350
-1185 -767 -1623 -54 -56 -95 -108 -92 -115 3 -7 44 -74 92 -147 96 -147 105
-178 69 -238 -33 -57 -47 -59 -449 -76 -203 -9 -408 -16 -454 -16 -81 0 -84 1
-117 34 -62 62 -60 67 163 494 120 230 210 390 230 411 31 31 37 33 84 29 62
-6 82 -24 150 -137 29 -47 66 -106 82 -129 l29 -44 35 34 c19 18 81 88 137
155 356 424 564 927 617 1487 14 154 7 454 -15 601 -89 603 -362 1140 -787
1550 -208 200 -419 351 -678 484 -77 39 -145 80 -151 91 -15 28 -12 82 5 108
19 26 70 41 107 31 15 -4 82 -35 149 -69z m-2445 -32 c61 -67 60 -71 -162
-497 -108 -207 -205 -386 -217 -399 -41 -44 -126 -46 -171 -3 -13 12 -58 78
-102 146 -43 69 -84 125 -90 125 -6 0 -42 -34 -80 -77 -393 -434 -623 -924
-700 -1493 -21 -152 -24 -489 -5 -635 79 -635 350 -1181 803 -1620 211 -205
425 -358 676 -484 136 -68 157 -87 157 -143 0 -51 -39 -88 -90 -88 -39 0 -145
46 -278 121 -254 142 -465 307 -678 527 -437 452 -709 1025 -784 1658 -18 152
-21 475 -5 624 66 637 337 1222 784 1697 76 80 86 95 76 112 -5 11 -47 77 -91
147 -90 140 -101 180 -62 232 43 58 51 59 413 75 184 8 388 14 453 13 l119 -1
34 -37z m849 -1630 c87 -25 158 -65 237 -133 l62 -52 70 59 c126 106 252 152
411 151 316 -3 565 -256 565 -575 0 -99 -18 -179 -62 -268 -28 -58 -85 -118
-502 -537 -259 -260 -475 -473 -481 -473 -6 0 -222 213 -481 473 -503 505
-509 512 -550 652 -27 95 -23 231 10 330 104 308 406 465 721 373z m433 -3063
c212 -50 391 -227 446 -442 20 -76 20 -219 1 -301 -51 -216 -232 -397 -447
-447 -257 -59 -515 45 -657 265 -126 194 -126 466 -1 659 142 219 405 325 658
266z"/>
<path d="M5010 8285 c-142 -40 -247 -142 -290 -283 -24 -77 -25 -147 -4 -227
30 -117 113 -216 224 -269 60 -29 73 -31 175 -31 99 0 116 3 168 27 243 114
319 419 158 633 -98 129 -279 192 -431 150z"/>
<path d="M5047 2770 c-155 -26 -280 -136 -327 -289 -47 -151 -5 -312 112 -423
93 -88 227 -130 348 -108 178 32 308 164 341 344 41 219 -118 439 -342 476
-35 5 -68 9 -74 9 -5 -1 -32 -5 -58 -9z"/>
</g>
</svg>
